<?xml version="1.0" encoding="UTF-8" standalone="no"?>
<!-- Created with Inkscape (http://www.inkscape.org/) -->

<svg
   xmlns:dc="http://purl.org/dc/elements/1.1/"
   xmlns:cc="http://creativecommons.org/ns#"
   xmlns:rdf="http://www.w3.org/1999/02/22-rdf-syntax-ns#"
   xmlns:svg="http://www.w3.org/2000/svg"
   xmlns="http://www.w3.org/2000/svg"
   xmlns:sodipodi="http://sodipodi.sourceforge.net/DTD/sodipodi-0.dtd"
   xmlns:inkscape="http://www.inkscape.org/namespaces/inkscape"
   width="210mm"
   height="297mm"
   id="svg3159"
   version="1.1"
   inkscape:version="0.48.2 r9819"
   sodipodi:docname="example-ill-known.pdf">
  <defs
     id="defs3161">
    <marker
       inkscape:stockid="Arrow1Lend"
       orient="auto"
       refY="0"
       refX="0"
       id="Arrow1Lend"
       style="overflow:visible">
      <path
         id="path3911"
         d="M 0,0 5,-5 -12.5,0 5,5 0,0 z"
         style="fill-rule:evenodd;stroke:#000000;stroke-width:1pt;marker-start:none"
         transform="matrix(-0.8,0,0,-0.8,-10,0)"
         inkscape:connector-curvature="0" />
    </marker>
    <marker
       inkscape:stockid="Arrow1Lend"
       orient="auto"
       refY="0"
       refX="0"
       id="marker3119"
       style="overflow:visible">
      <path
         id="path3121"
         d="M 0,0 5,-5 -12.5,0 5,5 0,0 z"
         style="fill-rule:evenodd;stroke:#000000;stroke-width:1pt;marker-start:none"
         transform="matrix(-0.8,0,0,-0.8,-10,0)"
         inkscape:connector-curvature="0" />
    </marker>
    <marker
       inkscape:stockid="Arrow1Lend"
       orient="auto"
       refY="0"
       refX="0"
       id="Arrow1Lend-8"
       style="overflow:visible">
      <path
         id="path3911-7"
         d="M 0,0 5,-5 -12.5,0 5,5 0,0 z"
         style="fill-rule:evenodd;stroke:#000000;stroke-width:1pt;marker-start:none"
         transform="matrix(-0.8,0,0,-0.8,-10,0)"
         inkscape:connector-curvature="0" />
    </marker>
    <marker
       inkscape:stockid="Arrow1Lend"
       orient="auto"
       refY="0"
       refX="0"
       id="marker4089"
       style="overflow:visible">
      <path
         id="path4091"
         d="M 0,0 5,-5 -12.5,0 5,5 0,0 z"
         style="fill-rule:evenodd;stroke:#000000;stroke-width:1pt;marker-start:none"
         transform="matrix(-0.8,0,0,-0.8,-10,0)"
         inkscape:connector-curvature="0" />
    </marker>
  </defs>
  <sodipodi:namedview
     id="base"
     pagecolor="#ffffff"
     bordercolor="#666666"
     borderopacity="1.0"
     inkscape:pageopacity="0.0"
     inkscape:pageshadow="2"
     inkscape:zoom="1.4"
     inkscape:cx="-279.45688"
     inkscape:cy="765.60089"
     inkscape:document-units="px"
     inkscape:current-layer="layer1"
     showgrid="true"
     inkscape:window-width="1908"
     inkscape:window-height="996"
     inkscape:window-x="0"
     inkscape:window-y="25"
     inkscape:window-maximized="1">
    <inkscape:grid
       type="xygrid"
       id="grid3252" />
  </sodipodi:namedview>
  <metadata
     id="metadata3164">
    <rdf:RDF>
      <cc:Work
         rdf:about="">
        <dc:format>image/svg+xml</dc:format>
        <dc:type
           rdf:resource="http://purl.org/dc/dcmitype/StillImage" />
        <dc:title></dc:title>
      </cc:Work>
    </rdf:RDF>
  </metadata>
  <g
     inkscape:label="Capa 1"
     inkscape:groupmode="layer"
     id="layer1">
    <path
       style="fill:#e6e6e6;stroke:#000000;stroke-width:1.70000005;stroke-linecap:butt;stroke-linejoin:miter;stroke-miterlimit:4;stroke-opacity:1;stroke-dasharray:1.7, 1.7;stroke-dashoffset:0"
       d="m 50,42.362183 75,0 30,69.999997"
       id="path3857"
       inkscape:connector-curvature="0" />
    <path
       style="fill:#cccccc;stroke:#000000;stroke-width:0.26300000000000001;stroke-linecap:butt;stroke-linejoin:miter;stroke-miterlimit:4;stroke-opacity:1;stroke-dasharray:none;fill-opacity:1"
       d="m 85,112.36218 40,-69.999997 30,69.999997"
       id="path3283"
       inkscape:connector-curvature="0" />
    <path
       inkscape:connector-curvature="0"
       id="path2851-8"
       style="fill:none;stroke:#000000;stroke-width:1;stroke-linecap:butt;stroke-linejoin:miter;stroke-miterlimit:4;stroke-opacity:1;stroke-dasharray:none;stroke-dashoffset:0.79999999;marker-end:url(#Arrow1Lend)"
       d="m 49.259886,111.96896 159.954014,0 0,0" />
    <path
       inkscape:connector-curvature="0"
       id="path2853-1"
       style="fill:none;stroke:#000000;stroke-width:0.96330571;stroke-linecap:butt;stroke-linejoin:miter;stroke-miterlimit:4;stroke-opacity:1;stroke-dasharray:none;marker-mid:none;marker-end:url(#Arrow1Lend)"
       d="m 49.259886,111.96896 0,-69.606777" />
    <text
       xml:space="preserve"
       style="font-size:7.12644911px;font-style:normal;font-variant:normal;font-weight:normal;font-stretch:normal;text-align:start;line-height:125%;letter-spacing:0px;word-spacing:0px;writing-mode:lr-tb;text-anchor:start;fill:#000000;fill-opacity:1;stroke:none;font-family:LMRoman10;-inkscape-font-specification:LMRoman10"
       x="48.434116"
       y="118.03951"
       id="text3093"
       sodipodi:linespacing="125%"
       transform="scale(0.99756057,1.0024454)"><tspan
         sodipodi:role="line"
         id="tspan3095"
         x="48.434116"
         y="118.03951">0</tspan></text>
    <text
       xml:space="preserve"
       style="font-size:7.12644911px;font-style:normal;font-variant:normal;font-weight:normal;font-stretch:normal;text-align:start;line-height:125%;letter-spacing:0px;word-spacing:0px;writing-mode:lr-tb;text-anchor:start;fill:#000000;fill-opacity:1;stroke:none;font-family:LMRoman10;-inkscape-font-specification:LMRoman10"
       x="65.289139"
       y="118.32052"
       id="text3097"
       sodipodi:linespacing="125%"
       transform="scale(0.99756057,1.0024454)"><tspan
         sodipodi:role="line"
         id="tspan3099"
         x="65.289139"
         y="118.32052">1</tspan></text>
    <text
       xml:space="preserve"
       style="font-size:7.12644911px;font-style:normal;font-variant:normal;font-weight:normal;font-stretch:normal;text-align:start;line-height:125%;letter-spacing:0px;word-spacing:0px;writing-mode:lr-tb;text-anchor:start;fill:#000000;fill-opacity:1;stroke:none;font-family:LMRoman10;-inkscape-font-specification:LMRoman10"
       x="80.458664"
       y="118.36178"
       id="text3101"
       sodipodi:linespacing="125%"
       transform="scale(0.99756057,1.0024454)"><tspan
         sodipodi:role="line"
         id="tspan3103"
         x="80.458664"
         y="118.36178">2</tspan></text>
    <text
       xml:space="preserve"
       style="font-size:7.12644911px;font-style:normal;font-variant:normal;font-weight:normal;font-stretch:normal;text-align:start;line-height:125%;letter-spacing:0px;word-spacing:0px;writing-mode:lr-tb;text-anchor:start;fill:#000000;fill-opacity:1;stroke:none;font-family:LMRoman10;-inkscape-font-specification:LMRoman10"
       x="95.702301"
       y="118.82241"
       id="text3105"
       sodipodi:linespacing="125%"
       transform="scale(0.99756057,1.0024454)"><tspan
         sodipodi:role="line"
         id="tspan3107"
         x="95.702301"
         y="118.82241">3</tspan></text>
    <text
       xml:space="preserve"
       style="font-size:7.12644911px;font-style:normal;font-variant:normal;font-weight:normal;font-stretch:normal;text-align:start;line-height:125%;letter-spacing:0px;word-spacing:0px;writing-mode:lr-tb;text-anchor:start;fill:#000000;fill-opacity:1;stroke:none;font-family:LMRoman10;-inkscape-font-specification:LMRoman10"
       x="109.9552"
       y="118.82241"
       id="text3109"
       sodipodi:linespacing="125%"
       transform="scale(0.99756057,1.0024454)"><tspan
         sodipodi:role="line"
         id="tspan3111"
         x="109.9552"
         y="118.82241">4</tspan></text>
    <text
       xml:space="preserve"
       style="font-size:7.12644911px;font-style:normal;font-variant:normal;font-weight:normal;font-stretch:normal;text-align:start;line-height:125%;letter-spacing:0px;word-spacing:0px;writing-mode:lr-tb;text-anchor:start;fill:#000000;fill-opacity:1;stroke:none;font-family:LMRoman10;-inkscape-font-specification:LMRoman10"
       x="124.2081"
       y="118.82241"
       id="text3113"
       sodipodi:linespacing="125%"
       transform="scale(0.99756057,1.0024454)"><tspan
         sodipodi:role="line"
         id="tspan3115"
         x="124.2081"
         y="118.82241">5</tspan></text>
    <text
       xml:space="preserve"
       style="font-size:7.12644911px;font-style:normal;font-variant:normal;font-weight:normal;font-stretch:normal;text-align:start;line-height:125%;letter-spacing:0px;word-spacing:0px;writing-mode:lr-tb;text-anchor:start;fill:#000000;fill-opacity:1;stroke:none;font-family:LMRoman10;-inkscape-font-specification:LMRoman10"
       x="138.461"
       y="118.82241"
       id="text3117"
       sodipodi:linespacing="125%"
       transform="scale(0.99756057,1.0024454)"><tspan
         sodipodi:role="line"
         id="tspan3119"
         x="138.461"
         y="118.82241">6</tspan></text>
    <text
       xml:space="preserve"
       style="font-size:7.12644911px;font-style:normal;font-variant:normal;font-weight:normal;font-stretch:normal;text-align:start;line-height:125%;letter-spacing:0px;word-spacing:0px;writing-mode:lr-tb;text-anchor:start;fill:#000000;fill-opacity:1;stroke:none;font-family:LMRoman10;-inkscape-font-specification:LMRoman10"
       x="152.7139"
       y="118.82241"
       id="text3121"
       sodipodi:linespacing="125%"
       transform="scale(0.99756057,1.0024454)"><tspan
         sodipodi:role="line"
         id="tspan3123"
         x="152.7139"
         y="118.82241">7</tspan></text>
    <text
       xml:space="preserve"
       style="font-size:7.12644911px;font-style:normal;font-variant:normal;font-weight:normal;font-stretch:normal;text-align:start;line-height:125%;letter-spacing:0px;word-spacing:0px;writing-mode:lr-tb;text-anchor:start;fill:#000000;fill-opacity:1;stroke:none;font-family:LMRoman10;-inkscape-font-specification:LMRoman10"
       x="166.9668"
       y="118.82241"
       id="text3125"
       sodipodi:linespacing="125%"
       transform="scale(0.99756057,1.0024454)"><tspan
         sodipodi:role="line"
         id="tspan3127"
         x="166.9668"
         y="118.82241">8</tspan></text>
    <text
       xml:space="preserve"
       style="font-size:7.12644911px;font-style:normal;font-variant:normal;font-weight:normal;font-stretch:normal;text-align:start;line-height:125%;letter-spacing:0px;word-spacing:0px;writing-mode:lr-tb;text-anchor:start;fill:#000000;fill-opacity:1;stroke:none;font-family:LMRoman10;-inkscape-font-specification:LMRoman10"
       x="181.2197"
       y="118.82241"
       id="text3129"
       sodipodi:linespacing="125%"
       transform="scale(0.99756057,1.0024454)"><tspan
         sodipodi:role="line"
         id="tspan3131"
         x="181.2197"
         y="118.82241">9</tspan></text>
    <text
       xml:space="preserve"
       style="font-size:7.12644911px;font-style:normal;font-variant:normal;font-weight:normal;font-stretch:normal;text-align:start;line-height:125%;letter-spacing:0px;word-spacing:0px;writing-mode:lr-tb;text-anchor:start;fill:#000000;fill-opacity:1;stroke:none;font-family:LMRoman10;-inkscape-font-specification:LMRoman10"
       x="195.47263"
       y="118.82241"
       id="text3133"
       sodipodi:linespacing="125%"
       transform="scale(0.99756057,1.0024454)"><tspan
         sodipodi:role="line"
         id="tspan3135"
         x="195.47263"
         y="118.82241" /></text>
    <text
       xml:space="preserve"
       style="font-size:7.12644911px;font-style:normal;font-variant:normal;font-weight:normal;font-stretch:normal;text-align:start;line-height:125%;letter-spacing:0px;word-spacing:0px;writing-mode:lr-tb;text-anchor:start;fill:#000000;fill-opacity:1;stroke:none;font-family:AG Book Rounded;-inkscape-font-specification:AG Book Rounded"
       x="41.973026"
       y="47.248436"
       id="text4719"
       sodipodi:linespacing="125%"
       transform="scale(0.99756057,1.0024454)"><tspan
         sodipodi:role="line"
         id="tspan4721"
         x="41.973026"
         y="47.248436"
         style="font-style:normal;font-variant:normal;font-weight:normal;font-stretch:normal;font-family:LMRoman10;-inkscape-font-specification:LMRoman10">1</tspan></text>
    <text
       xml:space="preserve"
       style="font-size:7.12644911px;font-style:normal;font-variant:normal;font-weight:normal;font-stretch:normal;text-align:start;line-height:125%;letter-spacing:0px;word-spacing:0px;writing-mode:lr-tb;text-anchor:start;fill:#000000;fill-opacity:1;stroke:none;font-family:LMRoman10;-inkscape-font-specification:LMRoman10"
       x="41.973026"
       y="111.57851"
       id="text4723"
       sodipodi:linespacing="125%"
       transform="scale(0.99756057,1.0024454)"><tspan
         sodipodi:role="line"
         id="tspan4725"
         x="41.973026"
         y="111.57851">0</tspan></text>
    <text
       xml:space="preserve"
       style="font-size:12px;font-style:normal;font-variant:normal;font-weight:normal;font-stretch:normal;text-align:start;line-height:125%;letter-spacing:0px;word-spacing:0px;writing-mode:lr-tb;text-anchor:start;fill:#000000;fill-opacity:1;stroke:none;font-family:AG Book Rounded;-inkscape-font-specification:AG Book Rounded"
       x="46.275486"
       y="33.720146"
       id="text4727"
       sodipodi:linespacing="125%"
       transform="scale(0.99756057,1.0024454)"><tspan
         sodipodi:role="line"
         id="tspan4729"
         x="46.275486"
         y="33.720146"
         style="font-size:12px;font-family:LMRoman12;-inkscape-font-specification:LMRoman12" /></text>
    <text
       xml:space="preserve"
       style="font-size:7.12644911px;font-style:normal;font-variant:normal;font-weight:normal;font-stretch:normal;text-align:start;line-height:125%;letter-spacing:0px;word-spacing:0px;writing-mode:lr-tb;text-anchor:start;fill:#000000;fill-opacity:1;stroke:none;font-family:AG Book Rounded;-inkscape-font-specification:AG Book Rounded"
       x="127.17963"
       y="32.03466"
       id="text4731"
       sodipodi:linespacing="125%"
       transform="scale(0.99756057,1.0024454)"><tspan
         sodipodi:role="line"
         id="tspan4733"
         x="127.17963"
         y="32.03466" /></text>
    <text
       xml:space="preserve"
       style="font-size:20px;font-style:normal;font-variant:normal;font-weight:normal;font-stretch:normal;text-align:start;line-height:125%;letter-spacing:0px;word-spacing:0px;writing-mode:lr-tb;text-anchor:start;fill:#000000;fill-opacity:1;stroke:none;font-family:LMRoman10;-inkscape-font-specification:LMRoman10"
       x="216.42857"
       y="112.00504"
       id="text3273"
       sodipodi:linespacing="125%"><tspan
         sodipodi:role="line"
         id="tspan3275"
         x="216.42857"
         y="112.00504"
         style="font-size:12px">A</tspan></text>
    <text
       xml:space="preserve"
       style="font-size:12px;font-style:normal;font-variant:normal;font-weight:normal;font-stretch:normal;text-align:start;line-height:125%;letter-spacing:0px;word-spacing:0px;writing-mode:lr-tb;text-anchor:start;fill:#000000;fill-opacity:1;stroke:none;font-family:LMRoman10;-inkscape-font-specification:LMRoman10"
       x="140"
       y="52.362183"
       id="text3277"
       sodipodi:linespacing="125%"><tspan
         sodipodi:role="line"
         id="tspan3279"
         x="140"
         y="52.362183">X</tspan></text>
    <text
       xml:space="preserve"
       style="font-size:12px;font-style:normal;font-variant:normal;font-weight:normal;font-stretch:normal;text-align:start;line-height:125%;letter-spacing:0px;word-spacing:0px;writing-mode:lr-tb;text-anchor:start;fill:#000000;fill-opacity:1;stroke:none;font-family:LMRoman10;-inkscape-font-specification:LMRoman10"
       x="55"
       y="32.719322"
       id="text4069"
       sodipodi:linespacing="125%"><tspan
         sodipodi:role="line"
         id="tspan4071"
         x="55"
         y="32.719322" /></text>
    <text
       xml:space="preserve"
       style="font-size:12px;font-style:normal;font-variant:normal;font-weight:normal;font-stretch:normal;text-align:start;line-height:125%;letter-spacing:0px;word-spacing:0px;writing-mode:lr-tb;text-anchor:start;fill:#000000;fill-opacity:1;stroke:none;font-family:LMRoman10;-inkscape-font-specification:LMRoman10"
       x="50"
       y="37.362183"
       id="text4073"
       sodipodi:linespacing="125%"><tspan
         sodipodi:role="line"
         id="tspan4075"
         x="50"
         y="37.362183">Pos(A satisfies C) </tspan></text>
    <path
       style="fill:#cccccc;stroke:#000000;stroke-width:1.60000000000000009;stroke-linecap:butt;stroke-linejoin:miter;stroke-miterlimit:4;stroke-opacity:1;stroke-dasharray:1.60000000000000009, 1.60000000000000009;stroke-dashoffset:0;fill-opacity:1"
       d="m 125,207.36218 -40,-70 -35,0"
       id="path4067"
       inkscape:connector-curvature="0" />
    <path
       style="fill:none;stroke:#000000;stroke-width:1.06270098999999996;stroke-linecap:butt;stroke-linejoin:miter;stroke-miterlimit:4;stroke-opacity:1;stroke-dasharray:none;fill-opacity:1"
       d="m 85,207.36218 40,-69.99999 30,69.99999"
       id="path3283-4"
       inkscape:connector-curvature="0" />
    <path
       inkscape:connector-curvature="0"
       id="path2851-8-1"
       style="fill:none;stroke:#000000;stroke-width:1;stroke-linecap:butt;stroke-linejoin:miter;stroke-miterlimit:4;stroke-opacity:1;stroke-dasharray:none;stroke-dashoffset:0.79999999;marker-end:url(#Arrow1Lend)"
       d="m 49.259886,206.96896 159.954014,0 0,0" />
    <path
       inkscape:connector-curvature="0"
       id="path2853-1-0"
       style="fill:none;stroke:#000000;stroke-width:0.96330571;stroke-linecap:butt;stroke-linejoin:miter;stroke-miterlimit:4;stroke-opacity:1;stroke-dasharray:none;marker-mid:none;marker-end:url(#Arrow1Lend)"
       d="m 49.259886,206.96896 0,-69.60677" />
    <text
       xml:space="preserve"
       style="font-size:7.12644911px;font-style:normal;font-variant:normal;font-weight:normal;font-stretch:normal;text-align:start;line-height:125%;letter-spacing:0px;word-spacing:0px;writing-mode:lr-tb;text-anchor:start;fill:#000000;fill-opacity:1;stroke:none;font-family:LMRoman10;-inkscape-font-specification:LMRoman10"
       x="48.434116"
       y="212.80777"
       id="text3093-4"
       sodipodi:linespacing="125%"
       transform="scale(0.99756057,1.0024454)"><tspan
         sodipodi:role="line"
         id="tspan3095-0"
         x="48.434116"
         y="212.80777">0</tspan></text>
    <text
       xml:space="preserve"
       style="font-size:7.12644911px;font-style:normal;font-variant:normal;font-weight:normal;font-stretch:normal;text-align:start;line-height:125%;letter-spacing:0px;word-spacing:0px;writing-mode:lr-tb;text-anchor:start;fill:#000000;fill-opacity:1;stroke:none;font-family:LMRoman10;-inkscape-font-specification:LMRoman10"
       x="65.289139"
       y="213.08878"
       id="text3097-3"
       sodipodi:linespacing="125%"
       transform="scale(0.99756057,1.0024454)"><tspan
         sodipodi:role="line"
         id="tspan3099-0"
         x="65.289139"
         y="213.08878">1</tspan></text>
    <text
       xml:space="preserve"
       style="font-size:7.12644911px;font-style:normal;font-variant:normal;font-weight:normal;font-stretch:normal;text-align:start;line-height:125%;letter-spacing:0px;word-spacing:0px;writing-mode:lr-tb;text-anchor:start;fill:#000000;fill-opacity:1;stroke:none;font-family:LMRoman10;-inkscape-font-specification:LMRoman10"
       x="80.458664"
       y="213.13004"
       id="text3101-5"
       sodipodi:linespacing="125%"
       transform="scale(0.99756057,1.0024454)"><tspan
         sodipodi:role="line"
         id="tspan3103-8"
         x="80.458664"
         y="213.13004">2</tspan></text>
    <text
       xml:space="preserve"
       style="font-size:7.12644911px;font-style:normal;font-variant:normal;font-weight:normal;font-stretch:normal;text-align:start;line-height:125%;letter-spacing:0px;word-spacing:0px;writing-mode:lr-tb;text-anchor:start;fill:#000000;fill-opacity:1;stroke:none;font-family:LMRoman10;-inkscape-font-specification:LMRoman10"
       x="95.702301"
       y="213.59067"
       id="text3105-8"
       sodipodi:linespacing="125%"
       transform="scale(0.99756057,1.0024454)"><tspan
         sodipodi:role="line"
         id="tspan3107-0"
         x="95.702301"
         y="213.59067">3</tspan></text>
    <text
       xml:space="preserve"
       style="font-size:7.12644911px;font-style:normal;font-variant:normal;font-weight:normal;font-stretch:normal;text-align:start;line-height:125%;letter-spacing:0px;word-spacing:0px;writing-mode:lr-tb;text-anchor:start;fill:#000000;fill-opacity:1;stroke:none;font-family:LMRoman10;-inkscape-font-specification:LMRoman10"
       x="109.9552"
       y="213.59067"
       id="text3109-8"
       sodipodi:linespacing="125%"
       transform="scale(0.99756057,1.0024454)"><tspan
         sodipodi:role="line"
         id="tspan3111-3"
         x="109.9552"
         y="213.59067">4</tspan></text>
    <text
       xml:space="preserve"
       style="font-size:7.12644911px;font-style:normal;font-variant:normal;font-weight:normal;font-stretch:normal;text-align:start;line-height:125%;letter-spacing:0px;word-spacing:0px;writing-mode:lr-tb;text-anchor:start;fill:#000000;fill-opacity:1;stroke:none;font-family:LMRoman10;-inkscape-font-specification:LMRoman10"
       x="124.2081"
       y="213.59067"
       id="text3113-0"
       sodipodi:linespacing="125%"
       transform="scale(0.99756057,1.0024454)"><tspan
         sodipodi:role="line"
         id="tspan3115-5"
         x="124.2081"
         y="213.59067">5</tspan></text>
    <text
       xml:space="preserve"
       style="font-size:7.12644911px;font-style:normal;font-variant:normal;font-weight:normal;font-stretch:normal;text-align:start;line-height:125%;letter-spacing:0px;word-spacing:0px;writing-mode:lr-tb;text-anchor:start;fill:#000000;fill-opacity:1;stroke:none;font-family:LMRoman10;-inkscape-font-specification:LMRoman10"
       x="138.461"
       y="213.59067"
       id="text3117-5"
       sodipodi:linespacing="125%"
       transform="scale(0.99756057,1.0024454)"><tspan
         sodipodi:role="line"
         id="tspan3119-8"
         x="138.461"
         y="213.59067">6</tspan></text>
    <text
       xml:space="preserve"
       style="font-size:7.12644911px;font-style:normal;font-variant:normal;font-weight:normal;font-stretch:normal;text-align:start;line-height:125%;letter-spacing:0px;word-spacing:0px;writing-mode:lr-tb;text-anchor:start;fill:#000000;fill-opacity:1;stroke:none;font-family:LMRoman10;-inkscape-font-specification:LMRoman10"
       x="152.7139"
       y="213.59067"
       id="text3121-6"
       sodipodi:linespacing="125%"
       transform="scale(0.99756057,1.0024454)"><tspan
         sodipodi:role="line"
         id="tspan3123-6"
         x="152.7139"
         y="213.59067">7</tspan></text>
    <text
       xml:space="preserve"
       style="font-size:7.12644911px;font-style:normal;font-variant:normal;font-weight:normal;font-stretch:normal;text-align:start;line-height:125%;letter-spacing:0px;word-spacing:0px;writing-mode:lr-tb;text-anchor:start;fill:#000000;fill-opacity:1;stroke:none;font-family:LMRoman10;-inkscape-font-specification:LMRoman10"
       x="166.9668"
       y="213.59067"
       id="text3125-0"
       sodipodi:linespacing="125%"
       transform="scale(0.99756057,1.0024454)"><tspan
         sodipodi:role="line"
         id="tspan3127-4"
         x="166.9668"
         y="213.59067">8</tspan></text>
    <text
       xml:space="preserve"
       style="font-size:7.12644911px;font-style:normal;font-variant:normal;font-weight:normal;font-stretch:normal;text-align:start;line-height:125%;letter-spacing:0px;word-spacing:0px;writing-mode:lr-tb;text-anchor:start;fill:#000000;fill-opacity:1;stroke:none;font-family:LMRoman10;-inkscape-font-specification:LMRoman10"
       x="181.2197"
       y="213.59067"
       id="text3129-8"
       sodipodi:linespacing="125%"
       transform="scale(0.99756057,1.0024454)"><tspan
         sodipodi:role="line"
         id="tspan3131-3"
         x="181.2197"
         y="213.59067">9</tspan></text>
    <text
       xml:space="preserve"
       style="font-size:7.12644911px;font-style:normal;font-variant:normal;font-weight:normal;font-stretch:normal;text-align:start;line-height:125%;letter-spacing:0px;word-spacing:0px;writing-mode:lr-tb;text-anchor:start;fill:#000000;fill-opacity:1;stroke:none;font-family:AG Book Rounded;-inkscape-font-specification:AG Book Rounded"
       x="41.973026"
       y="142.01669"
       id="text4719-3"
       sodipodi:linespacing="125%"
       transform="scale(0.99756057,1.0024454)"><tspan
         sodipodi:role="line"
         id="tspan4721-5"
         x="41.973026"
         y="142.01669"
         style="font-style:normal;font-variant:normal;font-weight:normal;font-stretch:normal;font-family:LMRoman10;-inkscape-font-specification:LMRoman10">1</tspan></text>
    <text
       xml:space="preserve"
       style="font-size:7.12644911px;font-style:normal;font-variant:normal;font-weight:normal;font-stretch:normal;text-align:start;line-height:125%;letter-spacing:0px;word-spacing:0px;writing-mode:lr-tb;text-anchor:start;fill:#000000;fill-opacity:1;stroke:none;font-family:LMRoman10;-inkscape-font-specification:LMRoman10"
       x="41.973026"
       y="206.34677"
       id="text4723-9"
       sodipodi:linespacing="125%"
       transform="scale(0.99756057,1.0024454)"><tspan
         sodipodi:role="line"
         id="tspan4725-6"
         x="41.973026"
         y="206.34677">0</tspan></text>
    <text
       xml:space="preserve"
       style="font-size:12px;font-style:normal;font-variant:normal;font-weight:normal;font-stretch:normal;text-align:start;line-height:125%;letter-spacing:0px;word-spacing:0px;writing-mode:lr-tb;text-anchor:start;fill:#000000;fill-opacity:1;stroke:none;font-family:LMRoman10;-inkscape-font-specification:LMRoman10"
       x="140"
       y="152.36218"
       id="text3277-7"
       sodipodi:linespacing="125%"><tspan
         sodipodi:role="line"
         id="tspan3279-5"
         x="140"
         y="152.36218">X</tspan></text>
    <text
       xml:space="preserve"
       style="font-size:12px;font-style:normal;font-variant:normal;font-weight:normal;font-stretch:normal;text-align:start;line-height:125%;letter-spacing:0px;word-spacing:0px;writing-mode:lr-tb;text-anchor:start;fill:#000000;fill-opacity:1;stroke:none;font-family:LMRoman10;-inkscape-font-specification:LMRoman10"
       x="50"
       y="132.36218"
       id="text4215"
       sodipodi:linespacing="125%"><tspan
         sodipodi:role="line"
         id="tspan4217"
         x="50"
         y="132.36218">Nec(A satisfies C)</tspan></text>
    <path
       style="fill:#cccccc;fill-opacity:1;stroke:#c1c1c1;stroke-width:0.18982141999999999;stroke-linecap:round;stroke-linejoin:round;stroke-miterlimit:4;stroke-opacity:1;stroke-dasharray:none;stroke-dashoffset:0"
       d="m 49.78255,177.35181 0,-29.06059 2.142857,2.13728 c 1.178572,1.1755 2.142858,2.01267 2.142858,1.86039 0,-0.15229 -0.889396,-3.3572 -1.976435,-7.12202 -2.152439,-7.4547 -2.19441,-7.79675 -0.791498,-6.45042 0.392899,0.37705 11.120611,10.39023 23.839361,22.25151 12.71875,11.86128 23.142564,21.61456 23.164032,21.67396 0.02147,0.0594 -2.994935,5.41158 -6.703119,11.89372 l -6.74215,11.78571 -17.537952,0.0455 -17.537954,0.0455 0,-29.06058 z"
       id="path3897"
       inkscape:connector-curvature="0" />
    <path
       style="fill:#cccccc;fill-opacity:1;stroke:#c6c6c6;stroke-width:0.18982141999999999;stroke-linecap:round;stroke-linejoin:round;stroke-miterlimit:4;stroke-opacity:1;stroke-dasharray:none;stroke-dashoffset:0"
       d="m 86.419455,206.24071 c 0.03274,-0.0935 2.949995,-5.22757 6.482793,-11.40912 l 6.42327,-11.23919 0.733752,0.65019 c 3.30632,2.92978 23.43918,21.90019 23.36667,22.01751 -0.1324,0.21423 -37.081534,0.19486 -37.006485,-0.0194 z"
       id="path3899"
       inkscape:connector-curvature="0" />
    <path
       style="fill:#e6e6e6;fill-opacity:1;stroke:#c6c6c6;stroke-width:0.04696429;stroke-linecap:round;stroke-linejoin:round;stroke-miterlimit:4;stroke-opacity:1;stroke-dasharray:none;stroke-dashoffset:0"
       d="m 49.804833,82.375464 0,-28.970422 2.142858,2.137274 c 1.178571,1.175501 2.142857,2.017949 2.142857,1.872106 0,-0.145842 -0.883929,-3.358825 -1.964286,-7.139963 -1.080357,-3.781138 -1.964286,-6.894931 -1.964286,-6.919541 0,-0.02461 0.241116,-0.04474 0.535812,-0.04474 0.413175,0 6.584173,4.032215 26.961651,17.617115 l 26.425841,17.617115 -0.33485,0.552527 c -0.18417,0.303891 -4.407623,7.684225 -9.385448,16.400743 l -9.050593,15.848212 -17.754777,0 -17.754779,0 0,-28.970421 z"
       id="path3901"
       inkscape:connector-curvature="0" />
    <path
       style="fill:#e6e6e6;fill-opacity:1;stroke:#ffffff;stroke-width:0.04696429000000000;stroke-linecap:round;stroke-linejoin:round;stroke-miterlimit:4;stroke-opacity:1;stroke-dasharray:none;stroke-dashoffset:0"
       d="m 49.983405,177.4941 0,-28.67321 1.877854,1.75357 c 1.863594,1.74025 2.370982,2.05931 2.26178,1.42224 -0.03124,-0.18223 -0.765582,-2.87419 -1.631878,-5.98214 -1.709602,-6.13342 -2.055906,-7.50148 -1.930608,-7.62677 0.04492,-0.0449 3.97139,3.55065 8.72548,7.99017 22.07105,20.61064 38.533202,36.03898 38.642406,36.21567 0.123444,0.19974 -1.071148,2.3647 -8.696793,15.76119 l -4.447086,7.8125 -17.400578,0 -17.400577,0 0,-28.67322 z"
       id="path3903"
       inkscape:connector-curvature="0" />
    <path
       style="fill:#e6e6e6;fill-opacity:1;stroke:#c6c6c6;stroke-width:0.04696429;stroke-linecap:round;stroke-linejoin:round;stroke-miterlimit:4;stroke-opacity:1;stroke-dasharray:none;stroke-dashoffset:0"
       d="m 86.164394,170.99469 c -6.73883,-6.29287 -12.252418,-11.40838 -12.252418,-11.3678 0,0.0406 -0.575987,-0.52023 -1.279973,-1.24625 -0.703986,-0.72603 -1.309041,-1.29098 -1.344568,-1.25545 -0.03553,0.0355 -0.638205,-0.52697 -1.339286,-1.25 -0.70108,-0.72303 -1.303758,-1.28553 -1.339285,-1.25 -0.03553,0.0355 -0.638206,-0.52697 -1.339286,-1.25 -0.70108,-0.72303 -1.303759,-1.28553 -1.339286,-1.25 -0.03553,0.0355 -0.638206,-0.52697 -1.339286,-1.25 -0.70108,-0.72303 -1.303758,-1.28553 -1.339285,-1.25 -0.03553,0.0355 -0.638206,-0.52697 -1.339286,-1.25 -0.70108,-0.72303 -1.304122,-1.28516 -1.340094,-1.24919 -0.03597,0.036 -0.594958,-0.48312 -1.242191,-1.15354 -0.647233,-0.67042 -1.227082,-1.20465 -1.288552,-1.18719 -0.06147,0.0175 -0.664149,-0.54503 -1.339286,-1.25 -0.675137,-0.70496 -1.277815,-1.26746 -1.339286,-1.25 -0.06147,0.0175 -0.664149,-0.54503 -1.339285,-1.25 -0.675137,-0.70496 -1.277816,-1.26671 -1.339286,-1.24834 -0.130406,0.039 -2.165336,-2.07723 -2.165336,-2.25183 0,-0.0648 0.321429,-0.11778 0.714286,-0.11778 0.642857,0 0.714286,0.0446 0.714286,0.44642 0,0.41667 0.05952,0.44643 0.892857,0.44643 0.833333,0 0.892857,-0.0298 0.892857,-0.44643 0,-0.40178 0.07143,-0.44642 0.714286,-0.44642 0.642857,0 0.714285,0.0446 0.714285,0.44642 0,0.41667 0.05952,0.44643 0.892857,0.44643 0.833334,0 0.892858,-0.0298 0.892858,-0.44643 0,-0.40178 0.07143,-0.44642 0.714285,-0.44642 0.642857,0 0.714286,0.0446 0.714286,0.44642 0,0.41667 0.05952,0.44643 0.892857,0.44643 0.833334,0 0.892857,-0.0298 0.892857,-0.44643 0,-0.40178 0.07143,-0.44642 0.714286,-0.44642 0.642857,0 0.714286,0.0446 0.714286,0.44642 0,0.41667 0.05952,0.44643 0.892857,0.44643 0.833333,0 0.892857,-0.0298 0.892857,-0.44643 0,-0.40178 0.07143,-0.44642 0.714286,-0.44642 0.642857,0 0.714285,0.0446 0.714285,0.44642 0,0.41667 0.05952,0.44643 0.892858,0.44643 0.833333,0 0.892857,-0.0298 0.892857,-0.44643 0,-0.40178 0.07143,-0.44642 0.714285,-0.44642 0.642858,0 0.714286,0.0446 0.714286,0.44642 0,0.41006 0.06548,0.44643 0.803572,0.44643 0.738094,0 0.803571,-0.0364 0.803571,-0.44643 0,-0.40178 0.07143,-0.44642 0.714286,-0.44642 0.642857,0 0.714285,0.0446 0.714285,0.44642 0,0.41667 0.05952,0.44643 0.892858,0.44643 0.833333,0 0.892857,-0.0298 0.892857,-0.44643 0,-0.40178 0.07143,-0.44642 0.714285,-0.44642 0.642858,0 0.714286,0.0446 0.714286,0.44642 0,0.41667 0.05952,0.44643 0.892857,0.44643 0.833334,0 0.892857,-0.0298 0.892857,-0.44643 0,-0.40178 0.07143,-0.44642 0.714286,-0.44642 0.642857,0 0.714286,0.0446 0.714286,0.44642 0,0.41667 0.05952,0.44643 0.892857,0.44643 0.833334,0 0.892857,-0.0298 0.892857,-0.44643 0,-0.40178 0.07143,-0.44642 0.714286,-0.44642 0.642857,0 0.714286,0.0446 0.714286,0.44642 0,0.41667 0.05952,0.44643 0.892857,0.44643 0.833334,0 0.892857,-0.0298 0.892857,-0.44643 0,-0.40178 0.07143,-0.44642 0.714286,-0.44642 0.64851,0 0.714285,0.0424 0.714285,0.46008 0,0.42786 0.05106,0.4564 0.728975,0.40745 0.628593,-0.0454 0.769227,0.0137 1.021282,0.42911 0.27422,0.45194 0.272013,0.49658 -0.03567,0.72157 -0.305342,0.22327 -0.308493,0.27589 -0.04567,0.76259 0.526707,0.97536 0.579602,1.02078 0.954874,0.81994 0.293358,-0.157 0.398851,-0.0997 0.674164,0.3664 0.317394,0.53731 0.317048,0.55937 -0.01257,0.80066 -0.331219,0.24247 -0.330087,0.26323 0.04963,0.90981 0.303181,0.51625 0.489829,0.65425 0.849256,0.62791 0.349623,-0.0256 0.528053,0.0965 0.740182,0.50675 0.258782,0.50043 0.25586,0.5578 -0.03939,0.77369 -0.305036,0.22305 -0.303647,0.26183 0.03195,0.89197 0.429971,0.80735 0.52338,0.87136 0.943423,0.64656 0.278734,-0.14917 0.378853,-0.0797 0.623069,0.43245 0.271109,0.56852 0.270183,0.62181 -0.01359,0.78061 -0.282246,0.15795 -0.275252,0.23075 0.09549,0.99384 0.361028,0.74311 0.436307,0.804 0.771898,0.6244 0.20452,-0.10946 0.389295,-0.17242 0.410609,-0.1399 0.681023,1.03879 0.686725,1.06042 0.346284,1.3139 -0.314918,0.23446 -0.313655,0.26676 0.03603,0.92266 0.288659,0.54143 0.453284,0.67047 0.809323,0.63438 0.329823,-0.0334 0.526821,0.0899 0.751714,0.47062 0.292275,0.49478 0.290184,0.52589 -0.05105,0.75959 -0.351807,0.24093 -0.350662,0.25222 0.10179,1.00326 0.391077,0.64916 0.507103,0.73309 0.798134,0.57733 0.280278,-0.15 0.396176,-0.0948 0.655005,0.31185 0.172959,0.27175 0.396684,0.55312 0.497166,0.62528 0.1101,0.0791 0.07626,0.13337 -0.08516,0.13666 -0.679271,0.0139 -0.765237,0.28684 -0.33091,1.05076 0.362762,0.63804 0.483868,0.72539 0.886023,0.63908 0.393945,-0.0846 0.501068,-0.0149 0.694205,0.45137 0.199243,0.48102 0.189136,0.58005 -0.07922,0.77628 -0.287987,0.21058 -0.281804,0.26991 0.09699,0.93051 0.222523,0.38807 0.423366,0.73218 0.446316,0.76469 0.02295,0.0325 0.202027,-0.0267 0.397944,-0.13153 0.307029,-0.16432 0.406934,-0.10468 0.723558,0.43196 0.202037,0.34243 0.309785,0.62383 0.239435,0.62533 -0.07035,0.001 -0.235546,0.071 -0.367107,0.15435 -0.193669,0.12275 -0.166928,0.29328 0.140482,0.89585 0.310882,0.60938 0.460684,0.73512 0.826688,0.69387 0.325589,-0.0367 0.528453,0.082 0.746871,0.43704 0.283481,0.46077 0.281941,0.50051 -0.02811,0.72723 -0.305341,0.22327 -0.308493,0.27589 -0.04567,0.76259 0.526701,0.97536 0.579601,1.02078 0.954871,0.81994 0.29336,-0.157 0.39885,-0.0997 0.67416,0.3664 0.31684,0.53637 0.31664,0.55966 -0.007,0.79624 -0.32252,0.23583 -0.31938,0.26917 0.0971,1.03165 0.35344,0.647 0.48608,0.75817 0.74152,0.62146 0.44571,-0.23854 0.4738,-0.22484 0.7891,0.3849 0.26555,0.51351 0.26323,0.5674 -0.0338,0.78457 -0.30504,0.22305 -0.30365,0.26183 0.032,0.89197 0.43171,0.81062 0.52272,0.87172 0.95431,0.64074 0.25268,-0.13523 0.36639,-0.12257 0.43188,0.0481 0.072,0.18762 -5.575748,10.34632 -5.970419,10.7391 -0.06251,0.0622 -5.627243,-5.03561 -12.366072,-11.32849 l 1.8e-5,0 z"
       id="path3905"
       inkscape:connector-curvature="0" />
    <path
       style="fill:#e6e6e6;fill-opacity:1;stroke:#ffffff;stroke-width:0.04696429000000000;stroke-linecap:round;stroke-linejoin:round;stroke-miterlimit:4;stroke-opacity:1;stroke-dasharray:none;stroke-dashoffset:0;opacity:1"
       d="M 95.761308,179.69666 C 92.795946,177.01164 78.025523,163.29849 67.82463,153.7597 c -3.674281,-3.4358 -8.990779,-8.40359 -11.814439,-11.03954 -2.823661,-2.63595 -5.133929,-4.86725 -5.133929,-4.95845 0,-0.32457 0.866785,-0.17214 0.975886,0.17161 0.198103,0.62416 1.778696,0.62416 1.976799,0 0.147692,-0.46534 1.089795,-0.46534 1.237487,0 0.198103,0.62416 1.778696,0.62416 1.976799,0 0.147691,-0.46534 1.089795,-0.46534 1.237487,0 0.198103,0.62416 1.778696,0.62416 1.976799,0 0.147691,-0.46534 1.089795,-0.46534 1.237486,0 0.198103,0.62416 1.778696,0.62416 1.976799,0 0.147692,-0.46534 1.089795,-0.46534 1.237487,0 0.198103,0.62416 1.778696,0.62416 1.976799,0 0.147692,-0.46534 1.089795,-0.46534 1.237487,0 0.190272,0.59949 1.605853,0.60612 1.795562,0.008 0.150123,-0.473 1.090673,-0.47937 1.240152,-0.008 0.198103,0.62416 1.778696,0.62416 1.9768,0 0.147691,-0.46534 1.089794,-0.46534 1.237485,0 0.198104,0.62416 1.778697,0.62416 1.9768,0 0.147691,-0.46534 1.089795,-0.46534 1.237486,0 0.198104,0.62416 1.778696,0.62416 1.9768,0 0.147691,-0.46534 1.089795,-0.46534 1.237486,0 0.198103,0.62416 1.778696,0.62416 1.9768,0 0.147012,-0.4632 1.079101,-0.4663 1.199996,-0.004 0.06219,0.23779 0.319711,0.3683 0.897868,0.455 0.887909,0.13315 1.140587,0.4533 0.794786,1.00702 -0.319574,0.51171 0.32736,1.69339 0.914785,1.67092 0.521158,-0.0199 1.07525,0.73397 0.766424,1.0428 -0.112815,0.11281 -0.205116,0.33892 -0.205116,0.50246 0,0.47742 0.703582,1.23837 1.145012,1.23837 0.44357,0 1.02145,0.91475 0.655038,1.03689 -0.288595,0.0962 -0.232927,0.71526 0.117691,1.30881 0.231639,0.39213 0.422984,0.51262 0.752673,0.47398 0.563543,-0.0661 0.981057,0.62842 0.673687,1.1206 -0.15173,0.24296 -0.120185,0.48707 0.136486,1.05627 0.282257,0.62593 0.396964,0.72444 0.742596,0.63769 0.310527,-0.0779 0.484284,0.0127 0.722945,0.37689 0.230025,0.35106 0.255398,0.49907 0.09474,0.55263 -0.600843,0.20028 0.160384,1.82909 0.854828,1.82909 0.183731,0 0.457522,0.17628 0.608425,0.39172 0.247075,0.35275 0.246666,0.42233 -0.0041,0.69943 -0.228257,0.25223 -0.239569,0.38285 -0.06273,0.72436 0.374609,0.72341 0.750177,1.05155 1.082742,0.946 0.213676,-0.0678 0.416078,0.0501 0.61998,0.36133 0.287427,0.43867 0.285671,0.47483 -0.03471,0.71521 -0.329504,0.24722 -0.328459,0.26911 0.04441,0.93078 0.259961,0.46131 0.526541,0.69524 0.835146,0.73285 0.696795,0.0849 0.943602,0.48254 0.645384,1.03977 -0.218114,0.40755 -0.202907,0.52946 0.13845,1.10998 0.286616,0.48742 0.492102,0.64468 0.813516,0.62258 0.296772,-0.0204 0.518661,0.12046 0.716025,0.45457 0.264043,0.44699 0.26289,0.49873 -0.01505,0.67422 -0.281998,0.17806 -0.281591,0.2309 0.0064,0.83557 0.202922,0.42601 0.522543,0.73536 0.940011,0.90979 0.651441,0.27219 1.036164,0.82872 0.659652,0.95423 -0.314364,0.10479 -0.254384,0.59163 0.155775,1.26439 0.270297,0.44336 0.457167,0.57485 0.719457,0.50626 0.5355,-0.14003 0.98151,0.6085 0.66593,1.11764 -0.20166,0.32535 -0.18043,0.46934 0.15357,1.04165 0.29908,0.51248 0.48598,0.65343 0.81858,0.61735 0.32031,-0.0348 0.48818,0.0787 0.65355,0.44165 0.15456,0.33922 0.16361,0.50805 0.0296,0.5527 -0.28909,0.0964 -0.23273,0.71542 0.11959,1.31352 0.23329,0.39603 0.41435,0.51114 0.71429,0.4541 0.22098,-0.042 0.40178,0.008 0.40178,0.11003 0,0.32818 -5.185616,9.63901 -5.622813,10.09583 -0.193384,0.20206 -0.674512,-0.15809 -2.884991,-2.15959 l 5e-6,0 z"
       id="path3907"
       inkscape:connector-curvature="0" />
    <path
       style="fill:#e6e6e6;fill-opacity:1;stroke:#ffffff;stroke-width:0.04696429000000000;stroke-linecap:round;stroke-linejoin:round;stroke-miterlimit:4;stroke-opacity:1;stroke-dasharray:none;stroke-dashoffset:0"
       d="m 93.759744,206.22621 c -6.58552,-0.0591 -7.019893,-0.0826 -6.91048,-0.37348 0.06421,-0.17073 2.898095,-5.18746 6.297515,-11.14829 5.490262,-9.6271 6.214368,-10.8141 6.48157,-10.625 0.761451,0.53887 22.153891,20.63453 23.105951,21.70528 l 0.34017,0.3826 -3.2866,1.7e-4 c -1.80764,1.3e-4 -6.82232,0.0276 -11.14375,0.061 -4.32143,0.0334 -11.019398,0.0324 -14.884376,-0.002 l 0,3e-5 z"
       id="path3909"
       inkscape:connector-curvature="0" />
    <path
       style="fill:#e6e6e6;fill-opacity:1;stroke:#ffffff;stroke-width:0.04696429000000000;stroke-linecap:round;stroke-linejoin:round;stroke-miterlimit:4;stroke-opacity:1;stroke-dasharray:none;stroke-dashoffset:0"
       d="m 112.21555,195.33191 c -5.40179,-5.06084 -10.49025,-9.81729 -11.30769,-10.56989 l -1.48625,-1.36836 2.44236,-4.28281 c 3.15673,-5.53549 2.94597,-5.21144 3.15111,-4.84487 0.13211,0.23607 0.23998,0.25694 0.52887,0.10233 0.19959,-0.10682 0.38034,-0.16762 0.40165,-0.1351 0.68103,1.03879 0.68673,1.06042 0.34629,1.3139 -0.31492,0.23446 -0.31366,0.26676 0.036,0.92266 0.28866,0.54143 0.45329,0.67047 0.80933,0.63438 0.32982,-0.0334 0.52682,0.0899 0.75171,0.47062 0.29228,0.49478 0.29019,0.52589 -0.051,0.75959 -0.35181,0.24093 -0.35066,0.25222 0.10179,1.00326 0.39399,0.65399 0.50566,0.73386 0.80333,0.57455 0.29143,-0.15597 0.40065,-0.0947 0.69549,0.39012 0.34682,0.5703 0.34683,0.5772 10e-4,0.81925 -0.34372,0.24075 -0.343,0.25381 0.0529,0.95056 0.34449,0.60625 0.46751,0.69227 0.86726,0.60648 0.39394,-0.0846 0.50107,-0.0149 0.69421,0.45137 0.19924,0.48102 0.18913,0.58005 -0.0792,0.77628 -0.28798,0.21058 -0.2818,0.26991 0.097,0.93051 0.22252,0.38806 0.42336,0.73218 0.44631,0.76469 0.023,0.0325 0.20203,-0.0267 0.39795,-0.13153 0.30587,-0.1637 0.40574,-0.1067 0.70666,0.40332 0.34243,0.58038 0.34275,0.59876 0.0141,0.80404 -0.32808,0.20488 -0.32735,0.22779 0.0295,0.92723 0.29771,0.58356 0.44913,0.70776 0.81286,0.66677 0.32559,-0.0367 0.52846,0.082 0.74687,0.43704 0.28349,0.46077 0.28195,0.50051 -0.0281,0.72723 -0.30534,0.22327 -0.3085,0.27589 -0.0457,0.76259 0.5267,0.97536 0.5796,1.02078 0.95487,0.81994 0.29257,-0.15658 0.39809,-0.10094 0.66475,0.35046 0.29789,0.5043 0.29879,0.55667 0.015,0.87029 -0.28491,0.31482 -0.27788,0.37411 0.12432,1.04857 0.32359,0.54264 0.48905,0.67519 0.68673,0.55014 0.40375,-0.25539 0.49823,-0.21061 0.80426,0.38119 0.26555,0.51351 0.26323,0.5674 -0.0338,0.78457 -0.30503,0.22305 -0.30364,0.26183 0.032,0.89197 0.42998,0.80735 0.52339,0.87136 0.94343,0.64656 0.27799,-0.14877 0.37808,-0.0813 0.61438,0.41422 0.25139,0.52717 0.25286,0.62137 0.0134,0.86083 -0.23946,0.23945 -0.22753,0.34992 0.10896,1.0095 0.33625,0.6591 0.41826,0.71901 0.74491,0.54418 0.20189,-0.10804 0.38055,-0.16985 0.39702,-0.13733 0.0165,0.0325 0.2067,0.31189 0.42271,0.62084 0.38304,0.54782 0.38413,0.56399 0.044,0.65292 -0.44219,0.11564 -0.43993,0.41927 0.009,1.15494 0.28085,0.46063 0.44115,0.56251 0.75942,0.48263 0.31479,-0.079 0.47329,0.017 0.72148,0.43719 0.30835,0.52198 0.30735,0.54514 -0.0325,0.75737 -0.32167,0.20088 -0.3292,0.26018 -0.0914,0.71999 0.14252,0.2756 0.19679,0.49507 0.12061,0.48772 -0.0762,-0.007 -4.55816,-4.15406 -9.95994,-9.2149 z"
       id="path3912"
       inkscape:connector-curvature="0" />
    <path
       style="fill:#e6e6e6;fill-opacity:1;stroke:#c6c6c6;stroke-width:0.04696429;stroke-linecap:round;stroke-linejoin:round;stroke-miterlimit:4;stroke-opacity:1;stroke-dasharray:none;stroke-dashoffset:0"
       d=""
       id="path3914"
       inkscape:connector-curvature="0" />
    <path
       style="fill:#e6e6e6;fill-opacity:1;stroke:#c6c6c6;stroke-width:0.06641753;stroke-linecap:round;stroke-linejoin:round;stroke-miterlimit:4;stroke-opacity:1;stroke-dasharray:none;stroke-dashoffset:0"
       d="m 86.305827,110.64518 c 0.27374,-0.45141 4.449546,-7.75292 9.279569,-16.225577 4.830024,-8.472654 8.808824,-15.440921 8.841784,-15.485036 0.033,-0.04412 11.06597,7.257393 24.5178,16.225575 l 24.45786,16.305788 -33.79736,0 -33.797362,0 0.497709,-0.82075 z"
       id="path3916"
       inkscape:connector-curvature="0" />
    <path
       style="fill:#e6e6e6;fill-opacity:1;stroke:#ffffff;stroke-width:0.06641753000000000;stroke-linecap:round;stroke-linejoin:round;stroke-miterlimit:4;stroke-opacity:1;stroke-dasharray:none;stroke-dashoffset:0"
       d="M 129.03333,95.176344 C 114.0701,85.201911 104.69546,78.801306 104.74646,78.594301 c 0.13219,-0.53655 20.04621,-35.314261 20.21782,-35.308269 0.11664,0.0041 28.2007,65.289678 29.12533,67.706158 0.13505,0.35296 0.0707,0.46804 -0.25254,0.4514 -0.23859,-0.0123 -11.40028,-7.33255 -24.80374,-16.267246 z"
       id="path3918"
       inkscape:connector-curvature="0" />
  </g>
</svg>
